<?xml version="1.0" encoding="utf-8"?>
<!-- Generator: Adobe Illustrator 22.1.0, SVG Export Plug-In . SVG Version: 6.00 Build 0)  -->
<svg version="1.1" id="Слой_1" xmlns="http://www.w3.org/2000/svg" xmlns:xlink="http://www.w3.org/1999/xlink" x="0px" y="0px"
	 viewBox="0 0 328 163" style="enable-background:new 0 0 328 163;" xml:space="preserve">
<style type="text/css">
	.st0{fill:#CCCCCC;}
	.st1{fill:none;stroke:#010101;stroke-width:1.2;stroke-linecap:round;stroke-linejoin:round;stroke-miterlimit:10;}
	.st2{fill:#FFFFFF;}
	.st3{fill:none;stroke:#010101;stroke-width:1.2;stroke-miterlimit:10;}
	.st4{fill:#07AE8B;}
</style>
<g id="bus">
	<path class="st0" d="M316.7,138.6c0,12.6-8.3,22.9-18.6,22.9c-10.3,0-18.6-10.2-18.6-22.9c0-12.6,8.3-22.9,18.6-22.9
		C308.4,115.7,316.7,125.9,316.7,138.6"/>
	<ellipse class="st1" cx="298.1" cy="138.6" rx="18.6" ry="22.9"/>
	<path class="st0" d="M138.1,138.6c0,12.6-8.3,22.9-18.6,22.9c-10.3,0-18.6-10.2-18.6-22.9c0-12.6,8.3-22.9,18.6-22.9
		C129.8,115.7,138.1,125.9,138.1,138.6"/>
	<ellipse class="st1" cx="119.5" cy="138.6" rx="18.6" ry="22.9"/>
	<path class="st2" d="M295.3,60.4v10.9c0,1-0.2,1.9-0.6,2.7c-1,2-3.1,3.4-5.5,3.4h-2c-3.4,0-6.1-2.7-6.1-6.1V60.4
		c0-1.2,0.3-2.2,0.9-3.1v0c1.1-1.8,3-3,5.2-3h2C292.5,54.3,295.3,57.1,295.3,60.4"/>
	<path class="st3" d="M295.3,60.4v10.9c0,1-0.2,1.9-0.6,2.7c-1,2-3.1,3.4-5.5,3.4h-2c-3.4,0-6.1-2.7-6.1-6.1V60.4
		c0-1.2,0.3-2.2,0.9-3.1v0c1.1-1.8,3-3,5.2-3h2C292.5,54.3,295.3,57.1,295.3,60.4z"/>
	<path class="st4" d="M294.6,74.1c-1,2-3.1,3.4-5.5,3.4h-2c-3.4,0-6.1-2.7-6.1-6.1V60.4c0-1.2,0.3-2.2,0.9-3.1
		C282.1,58,284.7,72.9,294.6,74.1"/>
	<path class="st2" d="M228.9,135.9c0,1.5-0.1,3-0.4,4.4h85.2c7.3,0,13.2-5.9,13.2-13.2c0-0.6,0-1.2,0-1.7c0-3.5,0-7.1,0-10.1
		c0-4.8-1.7-9.2-3.5-12.6c-2.4-4.4-5.1-7.2-5.1-7.2l-5.6-4.6l-18.9-15.2l-22.6-48.7v0h0c-0.8-3.8-1.8-7.2-3-10.2
		c-0.1-0.4-0.3-0.7-0.5-1.1C263.7,7,254,1.2,243,1.2h-0.3c0,0,0,0,0,0h-99.9v78.3l2.4-0.1c0.2,7.8,0.2,20.3,0,27.5
		c-0.2,11.1,1.8,33.4,1.8,33.4h52.1c-0.2-1.4-0.4-2.9-0.4-4.4"/>
	<path class="st3" d="M228.9,135.9c0,1.5-0.1,3-0.4,4.4h85.2c7.3,0,13.2-5.9,13.2-13.2c0-0.6,0-1.2,0-1.7c0-3.5,0-7.1,0-10.1
		c0-4.8-1.7-9.2-3.5-12.6c-2.4-4.4-5.1-7.2-5.1-7.2l-5.6-4.6l-18.9-15.2l-22.6-48.7v0h0c-0.8-3.8-1.8-7.2-3-10.2
		c-0.1-0.4-0.3-0.7-0.5-1.1C263.7,7,254,1.2,243,1.2h-0.3c0,0,0,0,0,0h-99.9v78.3l2.4-0.1c0.2,7.8,0.2,20.3,0,27.5
		c-0.2,11.1,1.8,33.4,1.8,33.4h52.1c-0.2-1.4-0.4-2.9-0.4-4.4"/>
	<path class="st2" d="M281.6,72.8h-66.8c-1.5,0-2.9-0.9-3.6-2.3l-16.5-36.8c-0.5-1.2,0.3-2.6,1.7-2.6h70.4c1.5,0,3,0.9,3.6,2.4
		l11.8,27l3,6.8C286.4,69.9,284.5,72.8,281.6,72.8"/>
	<path class="st3" d="M281.6,72.8h-66.8c-1.5,0-2.9-0.9-3.6-2.3l-16.5-36.8c-0.5-1.2,0.3-2.6,1.7-2.6h70.4c1.5,0,3,0.9,3.6,2.4
		l11.8,27l3,6.8C286.4,69.9,284.5,72.8,281.6,72.8z"/>
	<path class="st2" d="M186.9,37.8l14.2,35h-24.4c0,0-5-0.8-5.6-11.1c-0.7-10.9-0.7-29.8-0.7-29.8l10.7-0.1
		C185.2,32.5,185.8,34.8,186.9,37.8"/>
	<path class="st3" d="M186.9,37.8l14.2,35h-24.4c0,0-5-0.8-5.6-11.1c-0.7-10.9-0.7-29.8-0.7-29.8l10.7-0.1
		C185.2,32.5,185.8,34.8,186.9,37.8z"/>
	<path class="st0" d="M158,125.4h168.9c0,0.6,0,1.2,0,1.7c0,7.3-6.2,13.2-13.8,13.2H158"/>
	<path class="st1" d="M158,125.4h168.9c0,0.6,0,1.2,0,1.7c0,7.3-6.2,13.2-13.8,13.2H158"/>
	<path class="st2" d="M186.5,54.3h-2c-2.2,0-4.1,1.2-5.2,3v0c-0.6,0.9-0.9,2-0.9,3.1v10.9c0,3.4,2.8,6.1,6.1,6.1h2
		c2.4,0,4.5-1.4,5.5-3.4c0.4-0.8,0.6-1.8,0.6-2.7V60.4C192.6,57.1,189.9,54.3,186.5,54.3"/>
	<path class="st3" d="M186.5,54.3h-2c-2.2,0-4.1,1.2-5.2,3v0c-0.6,0.9-0.9,2-0.9,3.1v10.9c0,3.4,2.8,6.1,6.1,6.1h2
		c2.4,0,4.5-1.4,5.5-3.4c0.4-0.8,0.6-1.8,0.6-2.7V60.4C192.6,57.1,189.9,54.3,186.5,54.3z"/>
	<path class="st0" d="M270.4,27.1h-81.8c0,0-0.2-5-0.5-11.3H267c0.2,0.4,0.3,0.7,0.5,1.1C268.6,19.9,269.6,23.3,270.4,27.1"/>
	<path class="st2" d="M323.3,102.8c-0.5,0.8-1.1,1.3-1.7,1.4l-11.1,2.1c-0.9,0.2-1.7-1.4-1.4-3.1l1.1-7.5l0-0.2l0.2-1.5
		c0.2-1.3,0.8-2.3,1.5-2.6l0.6-0.2l5.6,4.6C318.2,95.6,320.9,98.4,323.3,102.8"/>
	<path class="st3" d="M323.3,102.8c-0.5,0.8-1.1,1.3-1.7,1.4l-11.1,2.1c-0.9,0.2-1.7-1.4-1.4-3.1l1.1-7.5l0-0.2l0.2-1.5
		c0.2-1.3,0.8-2.3,1.5-2.6l0.6-0.2l5.6,4.6C318.2,95.6,320.9,98.4,323.3,102.8z"/>
	<path class="st3" d="M250.6,125.4c0,1.2-0.1,2.2-0.1,3.2c-0.5,6.4-6.9,11.7-6.9,11.7H142.7V1.2h27.9c9.8,0,17.8,8,17.8,17.8v9.8
		c0,0,13,30.6,18.9,44c1.4,3.4,2.5,5.6,2.7,6.1c1.3,2.5,31.5,17.8,36.5,22.3C249.3,103.7,250.7,116.7,250.6,125.4z"/>
	<path class="st2" d="M262.9,110.3l-13.6-1.3h0l-7.2-0.7c-2.5-0.2-4.5-2.1-5-4.6l-1.6-9c0-0.1,0-0.3,0-0.4v0
		c-0.1-1.9,1.7-3.5,3.6-3.1l21.1,4.3c1.3,0.3,2.4,1.3,2.8,2.6l2.5,9.2C266,108.9,264.6,110.5,262.9,110.3"/>
	<path class="st3" d="M262.9,110.3l-13.6-1.3h0l-7.2-0.7c-2.5-0.2-4.5-2.1-5-4.6l-1.6-9c0-0.1,0-0.3,0-0.4v0
		c-0.1-1.9,1.7-3.5,3.6-3.1l21.1,4.3c1.3,0.3,2.4,1.3,2.8,2.6l2.5,9.2C266,108.9,264.6,110.5,262.9,110.3z"/>
	<path class="st2" d="M271.2,96.3h32.4c1,0,1.8,1.4,1.7,2.9l-1.1,11.2c-0.2,1.7-1.1,2.9-2.2,2.9h-26.7c-1.7,0-3.2-1.7-3.7-4.2
		l-1.9-9.6C269.2,97.9,270,96.3,271.2,96.3"/>
	<path class="st3" d="M271.2,96.3h32.4c1,0,1.8,1.4,1.7,2.9l-1.1,11.2c-0.2,1.7-1.1,2.9-2.2,2.9h-26.7c-1.7,0-3.2-1.7-3.7-4.2
		l-1.9-9.6C269.2,97.9,270,96.3,271.2,96.3z"/>
	<path class="st2" d="M158,1.2v139.2H10.2c-4.6,0-8.3-3.7-8.3-8.3V9.5c0-4.6,3.7-8.3,8.3-8.3H158z"/>
	<path class="st0" d="M1.9,125.4v6.6c0,4.6,3.7,8.3,8.3,8.3H158v-14.9H1.9z"/>
	<path class="st3" d="M158,1.2v139.2H10.2c-4.6,0-8.3-3.7-8.3-8.3V9.5c0-4.6,3.7-8.3,8.3-8.3H158z"/>
	<line class="st1" x1="1.9" y1="125.4" x2="158" y2="125.4"/>
	<polygon class="st0" points="127.2,55.4 29.9,55.4 32.7,33.2 130,33.2 	"/>
	<line class="st1" x1="16" y1="75.1" x2="143.9" y2="75.1"/>
	<path class="st0" d="M231.8,138.6c0,12.6-8.3,22.9-18.6,22.9c-10.3,0-18.6-10.2-18.6-22.9c0-12.6,8.3-22.9,18.6-22.9
		C223.5,115.7,231.8,125.9,231.8,138.6"/>
	<ellipse class="st1" cx="213.2" cy="138.6" rx="18.6" ry="22.9"/>
	<path class="st0" d="M53.2,138.6c0,12.6-8.3,22.9-18.6,22.9c-10.3,0-18.6-10.2-18.6-22.9c0-12.6,8.3-22.9,18.6-22.9
		C44.9,115.7,53.2,125.9,53.2,138.6"/>
	<ellipse class="st1" cx="34.6" cy="138.6" rx="18.6" ry="22.9"/>
	<line class="st1" x1="16" y1="13.5" x2="143.9" y2="13.5"/>
</g>
</svg>
